<svg width="36" height="34" viewBox="0 0 36 34" fill="none" xmlns="http://www.w3.org/2000/svg">
<path d="M17.9603 33.02C18.1492 33.02 18.3618 32.9669 18.5979 32.8606C18.8458 32.7662 19.0642 32.6599 19.2531 32.5419C22.5825 30.4168 25.4632 28.1913 27.8953 25.8655C30.3391 23.5278 32.2222 21.1312 33.5445 18.6755C34.8786 16.208 35.5457 13.7169 35.5457 11.2022C35.5457 9.63193 35.2918 8.19748 34.7842 6.8988C34.2883 5.58831 33.5918 4.45491 32.6945 3.49861C31.809 2.54231 30.7642 1.80442 29.5599 1.28495C28.3675 0.765473 27.0747 0.505737 25.6816 0.505737C23.9579 0.505737 22.4408 0.94847 21.1303 1.83393C19.8198 2.70759 18.7632 3.87641 17.9603 5.34038C17.1693 3.88821 16.1186 2.7194 14.8081 1.83393C13.4976 0.94847 11.9746 0.505737 10.2391 0.505737C8.84595 0.505737 7.55317 0.765473 6.36074 1.28495C5.16832 1.80442 4.12347 2.54231 3.2262 3.49861C2.32893 4.45491 1.62646 5.58831 1.11879 6.8988C0.62293 8.19748 0.375 9.63193 0.375 11.2022C0.375 13.7169 1.03615 16.208 2.35844 18.6755C3.69254 21.1312 5.58154 23.5278 8.02542 25.8655C10.4693 28.1913 13.3559 30.4168 16.6853 32.5419C16.8742 32.6599 17.0867 32.7662 17.3228 32.8606C17.5707 32.9669 17.7832 33.02 17.9603 33.02ZM19.3771 11.149V17.7369L19.2531 20.7121L20.7761 19.1182L22.3877 17.489C22.5175 17.3591 22.6651 17.2587 22.8304 17.1879C23.0075 17.1053 23.1846 17.0639 23.3617 17.0639C23.7277 17.0639 24.0346 17.182 24.2826 17.4181C24.5423 17.6542 24.6722 17.9612 24.6722 18.339C24.6722 18.5515 24.6249 18.7404 24.5305 18.9057C24.4478 19.0592 24.3357 19.2009 24.194 19.3307L18.9875 24.0945C18.7986 24.2834 18.6274 24.4133 18.4739 24.4841C18.3204 24.5432 18.1492 24.5727 17.9603 24.5727C17.7832 24.5727 17.618 24.5432 17.4645 24.4841C17.311 24.4133 17.1339 24.2834 16.9332 24.0945L11.7267 19.3307C11.585 19.2009 11.4728 19.0592 11.3902 18.9057C11.3075 18.7404 11.2662 18.5515 11.2662 18.339C11.2662 17.9612 11.3843 17.6542 11.6204 17.4181C11.8683 17.182 12.1812 17.0639 12.559 17.0639C12.7361 17.0639 12.9132 17.1053 13.0903 17.1879C13.2674 17.2587 13.4209 17.3591 13.5507 17.489L15.1446 19.1182L16.6676 20.7121L16.5613 17.7369V11.149C16.5613 10.7712 16.6971 10.4525 16.9686 10.1927C17.252 9.92118 17.5825 9.78541 17.9603 9.78541C18.3499 9.78541 18.6805 9.92118 18.9521 10.1927C19.2354 10.4525 19.3771 10.7712 19.3771 11.149Z" fill="#D4DAF3"/>
</svg>
